<?xml version="1.0" encoding="UTF-8"?>
<!-- Created with Inkscape (http://www.inkscape.org/) -->
<svg width="175.05" height="148.94" version="1.1" viewBox="0 0 175.05 148.94" xmlns="http://www.w3.org/2000/svg">
 <g transform="translate(10.168 2.7976)">
  <g transform="matrix(2 0 0 2 -79.865 -85.428)" stroke-width=".16">
   <path d="m54.583 41.694c7.8669 1.7228 18.411 11.294 24.867 11.12 8.7127-0.23527 16.238-10.855 23.238-11.206-11.948 7.366-22.478 24.733-23.92 47.904-4.5553-24.633-3.2129-31.634-24.185-47.818z" fill="#b34595"/>
   <path d="m101.36 48.64c-6.2098 6.7344-6.2413 15.667-3.4124 17.538 4.434 2.932 8.8804-0.2847 24.422 2.6907-14.598 4.1708-32.137 9.8719-39.954 20.764 1.3471-11.713 6.0192-35.106 18.944-40.992z" fill="#f7a11c"/>
   <path d="m49.589 108.03c-3.1463-8.002-9.8155-14.027-14.528-19.89 2.1163-0.09757 4.2299-0.16544 6.3472-0.25318 3.9063 6.0419 7.4742 12.263 9.884 17.794-1.0943 0.83036 18.462 1.4251 25.483 10.046l-0.08738-0.018c-7.9081-5.7525-18.76-6.664-27.099-7.6785zm56.379-2.0836c2.9729-6.5972 6.3456-13.04 9.9236-17.959 2.1385-0.21518 4.4621-0.10074 6.3264-0.10074-4.7852 6.6574-10.928 13.36-14.462 20.155-9.9869 1.6054-19.677 3.1481-26.92 7.7478 9.024-8.2679 21.361-8.9458 25.132-9.8432z" fill="#50b992"/>
   <path d="m52.801 104.19c-3.5334-7.8664-8.0623-15.861-12.95-21.798 13.547-1.7019 29.18 5.7595 38.812 13.969 10.156-10.085 25.037-15.82 38.906-14.204-4.6859 7.3691-9.9416 14.838-12.946 22.034-10.246 0.23026-19.232 5.0512-25.533 10.102-7.3162-7.0892-18.011-8.3958-26.288-10.104z" fill="#12a3de"/>
   <path d="m34.848 69.09c6.8091-4.5173 19.935 0.33198 24.132-4.772s0.30107-12.313-3.5597-15.799c14.098 6.2207 17.667 29.312 19.441 41.355-11.729-13.324-25.461-20.547-40.014-20.784z" fill="#85bd3e"/>
  </g>
  <g stroke-width="2.0196">
   <ellipse cx="23.152" cy="31.411" rx="9" ry="9" fill="#85bd3e"/>
   <ellipse cx="78.124" cy="6.2024" rx="9" ry="9" fill="#b34595"/>
   <ellipse cx="127.52" cy="33.223" rx="9" ry="9" fill="#f7a11c"/>
  </g>
 </g>
</svg>
